# xmcd CD database file
#
# Track frame offsets:
#	150
#	11158
#	21546
#	33103
#	41757
#	47528
#	54887
#	62249
#	70880
#	79827
#	87152
#	96096
#
# Disc length: 1359 seconds
#
# Revision: 0
# Processed by: cddbd v1.5PL3 Copyright (c) Steve Scherf et al.
# Submitted via: CDex 1.51
#
DISCID=96054d0c
DTITLE=Buck Owens - Buck Owens
DYEAR=2001
DGENRE=Country
TTITLE0=Above And Beyond
TTITLE1=Excuse Me (I Think I've Got A Heartache)
TTITLE2=Foolin' Around
TTITLE3=After The Dance
TTITLE4=Blue Love
TTITLE5=That Ain't  Right Baby
TTITLE6=Down On The Corner Of Love
TTITLE7=Why Don't Mommy Stay With Daddy And Me
TTITLE8=It Don't Show On Me
TTITLE9=Please Don't Take Her From Me
TTITLE10=Rhythm And Booze
TTITLE11=Three Dimensin Love
EXTD=YEAR: 2001
EXTT0=
EXTT1=
EXTT2=
EXTT3=
EXTT4=
EXTT5=
EXTT6=
EXTT7=
EXTT8=
EXTT9=
EXTT10=
EXTT11=
PLAYORDER=
